Rubik-BlackItalic.ufo
<glyph name="quotedbl" format="1">
  <advance width="517"/>
  <unicode hex="0022"/>
  <outline>
    <contour>
      <point x="141" y="710" type="line" smooth="yes" name="hr00"/>
      <point x="122" y="710"/>
      <point x="109" y="696"/>
      <point x="107" y="674" type="curve" smooth="yes"/>
      <point x="84" y="440" type="line" smooth="yes"/>
      <point x="82" y="424"/>
      <point x="86" y="408"/>
      <point x="112" y="408" type="curve" smooth="yes"/>
      <point x="194" y="408" type="line" smooth="yes"/>
      <point x="220" y="408"/>
      <point x="231" y="424"/>
      <point x="236" y="440" type="curve" smooth="yes"/>
      <point x="313" y="674" type="line" smooth="yes"/>
      <point x="320" y="696"/>
      <point x="312" y="710"/>
      <point x="293" y="710" type="curve" smooth="yes"/>
    </contour>
    <contour>
      <point x="396" y="710" type="line" smooth="yes"/>
      <point x="377" y="710"/>
      <point x="364" y="696"/>
      <point x="362" y="674" type="curve" smooth="yes"/>
      <point x="339" y="440" type="line" smooth="yes"/>
      <point x="337" y="424"/>
      <point x="341" y="408"/>
      <point x="367" y="408" type="curve" smooth="yes"/>
      <point x="449" y="408" type="line" smooth="yes"/>
      <point x="475" y="408"/>
      <point x="486" y="424"/>
      <point x="491" y="440" type="curve" smooth="yes"/>
      <point x="568" y="674" type="line" smooth="yes"/>
      <point x="575" y="696"/>
      <point x="567" y="710"/>
      <point x="548" y="710" type="curve" smooth="yes"/>
    </contour>
  </outline>
</glyph>
<glyph name="quotesingle" format="1">
  <advance width="262"/>
  <unicode hex="0027"/>
  <outline>
    <contour>
      <point x="141" y="710" type="line" smooth="yes" name="hr00"/>
      <point x="122" y="710"/>
      <point x="109" y="696"/>
      <point x="107" y="674" type="curve" smooth="yes"/>
      <point x="84" y="440" type="line" smooth="yes"/>
      <point x="82" y="424"/>
      <point x="86" y="408"/>
      <point x="112" y="408" type="curve" smooth="yes"/>
      <point x="194" y="408" type="line" smooth="yes"/>
      <point x="220" y="408"/>
      <point x="231" y="424"/>
      <point x="236" y="440" type="curve" smooth="yes"/>
      <point x="313" y="674" type="line" smooth="yes"/>
      <point x="320" y="696"/>
      <point x="312" y="710"/>
      <point x="293" y="710" type="curve" smooth="yes"/>
    </contour>
  </outline>
</glyph>
<glyph name="period" format="1">
  <advance width="310"/>
  <unicode hex="002E"/>
  <outline>
    <contour>
      <point x="55" y="228" type="line" smooth="yes" name="hr00"/>
      <point x="40" y="228"/>
      <point x="25" y="216"/>
      <point x="22" y="201" type="curve" smooth="yes"/>
      <point x="-15" y="27" type="line" smooth="yes"/>
      <point x="-18" y="12"/>
      <point x="-8" y="0"/>
      <point x="7" y="0" type="curve" smooth="yes"/>
      <point x="181" y="0" type="line" smooth="yes"/>
      <point x="196" y="0"/>
      <point x="210" y="12"/>
      <point x="213" y="27" type="curve" smooth="yes"/>
      <point x="250" y="201" type="line" smooth="yes"/>
      <point x="253" y="216"/>
      <point x="244" y="228"/>
      <point x="229" y="228" type="curve" smooth="yes"/>
    </contour>
  </outline>
</glyph>
<glyph name="two" format="1">
  <advance width="703"/>
  <unicode hex="0032"/>
  <outline>
    <contour>
      <point x="408" y="206" type="line" name="hr00"/>
      <point x="561" y="297"/>
      <point x="668" y="377"/>
      <point x="692" y="490" type="curve" smooth="yes"/>
      <point x="722" y="632"/>
      <point x="592" y="714"/>
      <point x="420" y="714" type="curve" smooth="yes"/>
      <point x="238" y="714"/>
      <point x="118" y="616"/>
      <point x="83" y="465" type="curve" smooth="yes"/>
      <point x="81" y="453"/>
      <point x="89" y="443"/>
      <point x="101" y="443" type="curve" smooth="yes"/>
      <point x="289" y="443" type="line" smooth="yes"/>
      <point x="307" y="443"/>
      <point x="323" y="447"/>
      <point x="334" y="466" type="curve" smooth="yes"/>
      <point x="343" y="482"/>
      <point x="358" y="517"/>
      <point x="399" y="517" type="curve" smooth="yes"/>
      <point x="434" y="517"/>
      <point x="431" y="496"/>
      <point x="427" y="477" type="curve" smooth="yes"/>
      <point x="414" y="417"/>
      <point x="286" y="341"/>
      <point x="37" y="185" type="curve" smooth="yes"/>
      <point x="8" y="167"/>
      <point x="2" y="139"/>
      <point x="0" y="131" type="curve" smooth="yes"/>
      <point x="-22" y="27" type="line" smooth="yes"/>
      <point x="-25" y="12"/>
      <point x="-15" y="0"/>
      <point x="0" y="0" type="curve" smooth="yes"/>
      <point x="576" y="0" type="line" smooth="yes"/>
      <point x="591" y="0"/>
      <point x="605" y="12"/>
      <point x="608" y="27" type="curve" smooth="yes"/>
      <point x="641" y="179" type="line" smooth="yes"/>
      <point x="644" y="194"/>
      <point x="634" y="206"/>
      <point x="619" y="206" type="curve" smooth="yes"/>
    </contour>
  </outline>
</glyph>
<glyph name="four" format="1">
  <advance width="754"/>
  <unicode hex="0034"/>
  <outline>
    <contour>
      <point x="616" y="315" type="line" name="hr00"/>
      <point x="693" y="673" type="line" smooth="yes"/>
      <point x="696" y="688"/>
      <point x="686" y="700"/>
      <point x="671" y="700" type="curve" smooth="yes"/>
      <point x="443" y="700" type="line" smooth="yes"/>
      <point x="427" y="700"/>
      <point x="413" y="693"/>
      <point x="403" y="683" type="curve" smooth="yes"/>
      <point x="41" y="313" type="line" smooth="yes"/>
      <point x="36" y="308"/>
      <point x="27" y="299"/>
      <point x="23" y="282" type="curve" smooth="yes"/>
      <point x="-7" y="139" type="line" smooth="yes"/>
      <point x="-10" y="124"/>
      <point x="-1" y="112"/>
      <point x="14" y="112" type="curve" smooth="yes"/>
      <point x="333" y="112" type="line"/>
      <point x="315" y="27" type="line" smooth="yes"/>
      <point x="312" y="12"/>
      <point x="322" y="0"/>
      <point x="337" y="0" type="curve" smooth="yes"/>
      <point x="523" y="0" type="line" smooth="yes"/>
      <point x="538" y="0"/>
      <point x="552" y="12"/>
      <point x="555" y="27" type="curve" smooth="yes"/>
      <point x="573" y="112" type="line"/>
      <point x="661" y="112" type="line" smooth="yes"/>
      <point x="676" y="112"/>
      <point x="691" y="124"/>
      <point x="694" y="139" type="curve" smooth="yes"/>
      <point x="726" y="288" type="line" smooth="yes"/>
      <point x="729" y="302"/>
      <point x="720" y="315"/>
      <point x="703" y="315" type="curve" smooth="yes"/>
    </contour>
    <contour>
      <point x="276" y="304" type="line"/>
      <point x="412" y="448" type="line"/>
      <point x="381" y="304" type="line"/>
    </contour>
  </outline>
</glyph>
<glyph name="I" format="1">
  <advance width="367"/>
  <unicode hex="0049"/>
  <outline>
    <contour>
      <point x="223" y="0" type="line" smooth="yes" name="hr00"/>
      <point x="238" y="0"/>
      <point x="252" y="12"/>
      <point x="255" y="27" type="curve" smooth="yes"/>
      <point x="393" y="673" type="line" smooth="yes"/>
      <point x="396" y="688"/>
      <point x="386" y="700"/>
      <point x="371" y="700" type="curve" smooth="yes"/>
      <point x="167" y="700" type="line" smooth="yes"/>
      <point x="152" y="700"/>
      <point x="138" y="688"/>
      <point x="135" y="673" type="curve" smooth="yes"/>
      <point x="-3" y="27" type="line" smooth="yes"/>
      <point x="-6" y="12"/>
      <point x="4" y="0"/>
      <point x="19" y="0" type="curve" smooth="yes"/>
    </contour>
  </outline>
</glyph>
<glyph name="O" format="1">
  <advance width="742"/>
  <unicode hex="004F"/>
  <outline>
    <contour>
      <point x="735" y="436" type="curve" smooth="yes" name="hr00"/>
      <point x="765" y="611"/>
      <point x="615" y="710"/>
      <point x="439" y="710" type="curve" smooth="yes"/>
      <point x="223" y="710"/>
      <point x="111" y="611"/>
      <point x="67" y="436" type="curve" smooth="yes"/>
      <point x="53" y="379"/>
      <point x="39" y="314"/>
      <point x="30" y="260" type="curve" smooth="yes"/>
      <point x="0" y="81"/>
      <point x="150" y="-10"/>
      <point x="326" y="-10" type="curve" smooth="yes"/>
      <point x="542" y="-10"/>
      <point x="652" y="81"/>
      <point x="698" y="260" type="curve" smooth="yes"/>
      <point x="711" y="314"/>
      <point x="725" y="379"/>
    </contour>
    <contour>
      <point x="291" y="266" type="curve" smooth="yes"/>
      <point x="301" y="323"/>
      <point x="313" y="379"/>
      <point x="327" y="434" type="curve" smooth="yes"/>
      <point x="341" y="490"/>
      <point x="375" y="515"/>
      <point x="418" y="515" type="curve" smooth="yes"/>
      <point x="461" y="515"/>
      <point x="485" y="490"/>
      <point x="475" y="434" type="curve" smooth="yes"/>
      <point x="465" y="379"/>
      <point x="453" y="323"/>
      <point x="439" y="266" type="curve" smooth="yes"/>
      <point x="425" y="210"/>
      <point x="392" y="185"/>
      <point x="348" y="185" type="curve" smooth="yes"/>
      <point x="304" y="185"/>
      <point x="281" y="210"/>
    </contour>
  </outline>
</glyph>
<glyph name="Q" format="1">
  <advance width="742"/>
  <unicode hex="0051"/>
  <outline>
    <contour>
      <point x="735" y="436" type="curve" smooth="yes"/>
      <point x="765" y="611"/>
      <point x="615" y="710"/>
      <point x="439" y="710" type="curve" smooth="yes"/>
      <point x="223" y="710"/>
      <point x="111" y="611"/>
      <point x="67" y="436" type="curve" smooth="yes"/>
      <point x="53" y="379"/>
      <point x="39" y="314"/>
      <point x="30" y="260" type="curve" smooth="yes"/>
      <point x="0" y="81"/>
      <point x="150" y="-10"/>
      <point x="326" y="-10" type="curve" smooth="yes"/>
      <point x="340" y="-10"/>
      <point x="353" y="-9"/>
      <point x="366" y="-9" type="curve" name="hr01"/>
      <point x="386" y="-42" type="line"/>
      <point x="390" y="-50"/>
      <point x="398" y="-65"/>
      <point x="423" y="-65" type="curve" name="hr02"/>
      <point x="619" y="-65" type="line"/>
      <point x="631" y="-65"/>
      <point x="643" y="-55"/>
      <point x="643" y="-43" type="curve"/>
      <point x="644" y="-40"/>
      <point x="643" y="-36"/>
      <point x="642" y="-34" type="curve"/>
      <point x="591" y="70" type="line"/>
      <point x="642" y="115"/>
      <point x="677" y="178"/>
      <point x="698" y="260" type="curve" smooth="yes"/>
      <point x="711" y="314"/>
      <point x="725" y="379"/>
    </contour>
    <contour>
      <point x="291" y="266" type="curve" smooth="yes"/>
      <point x="301" y="323"/>
      <point x="313" y="379"/>
      <point x="327" y="434" type="curve" smooth="yes"/>
      <point x="341" y="490"/>
      <point x="375" y="515"/>
      <point x="418" y="515" type="curve" smooth="yes"/>
      <point x="461" y="515"/>
      <point x="485" y="490"/>
      <point x="475" y="434" type="curve" smooth="yes"/>
      <point x="465" y="379"/>
      <point x="453" y="323"/>
      <point x="439" y="266" type="curve" smooth="yes"/>
      <point x="425" y="210"/>
      <point x="392" y="185"/>
      <point x="348" y="185" type="curve" smooth="yes"/>
      <point x="304" y="185"/>
      <point x="281" y="210"/>
    </contour>
  </outline>
</glyph>
<glyph name="R" format="1">
  <advance width="720"/>
  <unicode hex="0052"/>
  <outline>
    <contour>
      <point x="568" y="261" type="line" name="hr00"/>
      <point x="639" y="301"/>
      <point x="699" y="367"/>
      <point x="718" y="457" type="curve" smooth="yes"/>
      <point x="750" y="608"/>
      <point x="645" y="700"/>
      <point x="453" y="700" type="curve" smooth="yes"/>
      <point x="167" y="700" type="line" smooth="yes"/>
      <point x="152" y="700"/>
      <point x="138" y="688"/>
      <point x="135" y="673" type="curve" smooth="yes"/>
      <point x="-3" y="27" type="line" smooth="yes"/>
      <point x="-6" y="12"/>
      <point x="4" y="0"/>
      <point x="19" y="0" type="curve" smooth="yes"/>
      <point x="215" y="0" type="line" smooth="yes"/>
      <point x="230" y="0"/>
      <point x="244" y="12"/>
      <point x="247" y="27" type="curve" smooth="yes"/>
      <point x="288" y="218" type="line"/>
      <point x="329" y="218" type="line"/>
      <point x="374" y="27" type="line" smooth="yes"/>
      <point x="376" y="18"/>
      <point x="385" y="0"/>
      <point x="412" y="0" type="curve" smooth="yes"/>
      <point x="617" y="0" type="line" smooth="yes"/>
      <point x="629" y="0"/>
      <point x="641" y="10"/>
      <point x="643" y="22" type="curve" smooth="yes"/>
      <point x="644" y="27"/>
      <point x="644" y="29"/>
      <point x="643" y="33" type="curve" smooth="yes"/>
    </contour>
    <contour>
      <point x="351" y="514" type="line"/>
      <point x="424" y="514" type="line" smooth="yes"/>
      <point x="457" y="514"/>
      <point x="464" y="485"/>
      <point x="458" y="459" type="curve" smooth="yes"/>
      <point x="452" y="432"/>
      <point x="432" y="408"/>
      <point x="401" y="408" type="curve" smooth="yes"/>
      <point x="328" y="408" type="line"/>
    </contour>
  </outline>
</glyph>
<glyph name="underscore" format="1">
  <advance width="724"/>
  <unicode hex="005F"/>
  <outline>
    <contour>
      <point x="19" y="98" type="line" smooth="yes" name="hr00"/>
      <point x="4" y="98"/>
      <point x="-10" y="86"/>
      <point x="-13" y="71" type="curve" smooth="yes"/>
      <point x="-44" y="-71" type="line" smooth="yes"/>
      <point x="-47" y="-86"/>
      <point x="-37" y="-98"/>
      <point x="-22" y="-98" type="curve" smooth="yes"/>
      <point x="583" y="-98" type="line" smooth="yes"/>
      <point x="598" y="-98"/>
      <point x="612" y="-86"/>
      <point x="615" y="-71" type="curve" smooth="yes"/>
      <point x="646" y="71" type="line" smooth="yes"/>
      <point x="649" y="86"/>
      <point x="639" y="98"/>
      <point x="624" y="98" type="curve" smooth="yes"/>
    </contour>
  </outline>
</glyph>
<glyph name="f" format="1">
  <advance width="491"/>
  <unicode hex="0066"/>
  <outline>
    <contour>
      <point x="391" y="532" type="line" smooth="yes" name="hr00"/>
      <point x="395" y="553"/>
      <point x="411" y="565"/>
      <point x="441" y="565" type="curve" smooth="yes"/>
      <point x="522" y="565" type="line" smooth="yes"/>
      <point x="537" y="565"/>
      <point x="551" y="577"/>
      <point x="554" y="592" type="curve" smooth="yes"/>
      <point x="580" y="713" type="line" smooth="yes"/>
      <point x="583" y="728"/>
      <point x="574" y="740"/>
      <point x="559" y="740" type="curve" smooth="yes"/>
      <point x="446" y="740" type="line" smooth="yes"/>
      <point x="301" y="740"/>
      <point x="198" y="701"/>
      <point x="163" y="537" type="curve" smooth="yes"/>
      <point x="159" y="520" type="line"/>
      <point x="90" y="520" type="line" smooth="yes"/>
      <point x="75" y="520"/>
      <point x="60" y="508"/>
      <point x="57" y="493" type="curve" smooth="yes"/>
      <point x="32" y="372" type="line" smooth="yes"/>
      <point x="28" y="357"/>
      <point x="38" y="345"/>
      <point x="53" y="345" type="curve" smooth="yes"/>
      <point x="122" y="345" type="line"/>
      <point x="54" y="27" type="line" smooth="yes"/>
      <point x="51" y="12"/>
      <point x="61" y="0"/>
      <point x="76" y="0" type="curve" smooth="yes"/>
      <point x="251" y="0" type="line" smooth="yes"/>
      <point x="266" y="0"/>
      <point x="280" y="12"/>
      <point x="283" y="27" type="curve" smooth="yes"/>
      <point x="351" y="345" type="line"/>
      <point x="465" y="345" type="line" smooth="yes"/>
      <point x="480" y="345"/>
      <point x="494" y="357"/>
      <point x="498" y="372" type="curve" smooth="yes"/>
      <point x="523" y="493" type="line" smooth="yes"/>
      <point x="526" y="508"/>
      <point x="517" y="520"/>
      <point x="502" y="520" type="curve" smooth="yes"/>
      <point x="388" y="520" type="line"/>
    </contour>
  </outline>
</glyph>
<glyph name="l" format="1">
  <advance width="324"/>
  <unicode hex="006C"/>
  <outline>
    <contour>
      <point x="189" y="0" type="line" smooth="yes" name="hr00"/>
      <point x="204" y="0"/>
      <point x="218" y="12"/>
      <point x="221" y="27" type="curve" smooth="yes"/>
      <point x="361" y="683" type="line" smooth="yes"/>
      <point x="364" y="698"/>
      <point x="354" y="710"/>
      <point x="339" y="710" type="curve" smooth="yes"/>
      <point x="160" y="710" type="line" smooth="yes"/>
      <point x="145" y="710"/>
      <point x="131" y="698"/>
      <point x="128" y="683" type="curve" smooth="yes"/>
      <point x="-12" y="27" type="line" smooth="yes"/>
      <point x="-15" y="12"/>
      <point x="-5" y="0"/>
      <point x="10" y="0" type="curve" smooth="yes"/>
    </contour>
  </outline>
</glyph>
<glyph name="r" format="1">
  <advance width="519"/>
  <unicode hex="0072"/>
  <outline>
    <contour>
      <point x="316" y="493" type="line" smooth="yes" name="hr00"/>
      <point x="319" y="508"/>
      <point x="310" y="520"/>
      <point x="295" y="520" type="curve" smooth="yes"/>
      <point x="120" y="520" type="line" smooth="yes"/>
      <point x="105" y="520"/>
      <point x="90" y="508"/>
      <point x="87" y="493" type="curve" smooth="yes"/>
      <point x="-12" y="27" type="line" smooth="yes"/>
      <point x="-15" y="12"/>
      <point x="-5" y="0"/>
      <point x="10" y="0" type="curve" smooth="yes"/>
      <point x="200" y="0" type="line" smooth="yes"/>
      <point x="215" y="0"/>
      <point x="229" y="12"/>
      <point x="232" y="27" type="curve" smooth="yes"/>
      <point x="280" y="250" type="line" smooth="yes"/>
      <point x="288" y="290"/>
      <point x="312" y="310"/>
      <point x="352" y="310" type="curve" smooth="yes"/>
      <point x="481" y="310" type="line" smooth="yes"/>
      <point x="496" y="310"/>
      <point x="511" y="322"/>
      <point x="514" y="337" type="curve" smooth="yes"/>
      <point x="547" y="493" type="line" smooth="yes"/>
      <point x="550" y="508"/>
      <point x="541" y="520"/>
      <point x="526" y="520" type="curve" smooth="yes"/>
      <point x="458" y="520" type="line" smooth="yes"/>
      <point x="383" y="520"/>
      <point x="342" y="494"/>
      <point x="309" y="458" type="curve"/>
    </contour>
  </outline>
</glyph>
<glyph name="t" format="1">
  <advance width="529"/>
  <unicode hex="0074"/>
  <outline>
    <contour>
      <point x="330" y="235" type="line" smooth="yes" name="hr00"/>
      <point x="324" y="204"/>
      <point x="333" y="185"/>
      <point x="363" y="185" type="curve" smooth="yes"/>
      <point x="454" y="185" type="line" smooth="yes"/>
      <point x="469" y="185"/>
      <point x="478" y="173"/>
      <point x="475" y="158" type="curve" smooth="yes"/>
      <point x="447" y="27" type="line" smooth="yes"/>
      <point x="444" y="12"/>
      <point x="430" y="0"/>
      <point x="415" y="0" type="curve" smooth="yes"/>
      <point x="312" y="0" type="line" smooth="yes"/>
      <point x="167" y="0"/>
      <point x="62" y="51"/>
      <point x="97" y="215" type="curve" smooth="yes"/>
      <point x="125" y="345" type="line"/>
      <point x="46" y="345" type="line" smooth="yes"/>
      <point x="31" y="345"/>
      <point x="21" y="357"/>
      <point x="25" y="372" type="curve" smooth="yes"/>
      <point x="50" y="493" type="line" smooth="yes"/>
      <point x="53" y="508"/>
      <point x="68" y="520"/>
      <point x="83" y="520" type="curve" smooth="yes"/>
      <point x="162" y="520" type="line"/>
      <point x="197" y="683" type="line" smooth="yes"/>
      <point x="200" y="698"/>
      <point x="214" y="710"/>
      <point x="229" y="710" type="curve" smooth="yes"/>
      <point x="404" y="710" type="line" smooth="yes"/>
      <point x="419" y="710"/>
      <point x="429" y="698"/>
      <point x="426" y="683" type="curve" smooth="yes"/>
      <point x="391" y="520" type="line"/>
      <point x="517" y="520" type="line" smooth="yes"/>
      <point x="532" y="520"/>
      <point x="541" y="508"/>
      <point x="538" y="493" type="curve" smooth="yes"/>
      <point x="513" y="372" type="line" smooth="yes"/>
      <point x="509" y="357"/>
      <point x="495" y="345"/>
      <point x="480" y="345" type="curve" smooth="yes"/>
      <point x="354" y="345" type="line"/>
    </contour>
  </outline>
</glyph>
<glyph name="dieresis" format="1">
  <advance width="467"/>
  <unicode hex="00A8"/>
  <outline>
    <contour>
      <point x="85" y="765" type="line" smooth="yes" name="hr00"/>
      <point x="72" y="765"/>
      <point x="60" y="755"/>
      <point x="57" y="742" type="curve" smooth="yes"/>
      <point x="31" y="618" type="line" smooth="yes"/>
      <point x="28" y="605"/>
      <point x="36" y="595"/>
      <point x="49" y="595" type="curve" smooth="yes"/>
      <point x="173" y="595" type="line" smooth="yes"/>
      <point x="186" y="595"/>
      <point x="198" y="605"/>
      <point x="201" y="618" type="curve" smooth="yes"/>
      <point x="227" y="742" type="line" smooth="yes"/>
      <point x="230" y="755"/>
      <point x="222" y="765"/>
      <point x="209" y="765" type="curve" smooth="yes"/>
    </contour>
    <contour>
      <point x="324" y="765" type="line" smooth="yes"/>
      <point x="311" y="765"/>
      <point x="299" y="755"/>
      <point x="296" y="742" type="curve" smooth="yes"/>
      <point x="270" y="618" type="line" smooth="yes"/>
      <point x="267" y="605"/>
      <point x="275" y="595"/>
      <point x="288" y="595" type="curve" smooth="yes"/>
      <point x="412" y="595" type="line" smooth="yes"/>
      <point x="425" y="595"/>
      <point x="437" y="605"/>
      <point x="440" y="618" type="curve" smooth="yes"/>
      <point x="466" y="742" type="line" smooth="yes"/>
      <point x="469" y="755"/>
      <point x="461" y="765"/>
      <point x="448" y="765" type="curve" smooth="yes"/>
    </contour>
  </outline>
</glyph>
<glyph name="macron" format="1">
  <advance width="427"/>
  <unicode hex="00AF"/>
  <outline>
    <contour>
      <point x="81" y="745" type="line" smooth="yes" name="hr00"/>
      <point x="68" y="745"/>
      <point x="56" y="735"/>
      <point x="53" y="722" type="curve" smooth="yes"/>
      <point x="31" y="618" type="line" smooth="yes"/>
      <point x="28" y="605"/>
      <point x="36" y="595"/>
      <point x="49" y="595" type="curve" smooth="yes"/>
      <point x="376" y="595" type="line" smooth="yes"/>
      <point x="389" y="595"/>
      <point x="401" y="605"/>
      <point x="404" y="618" type="curve" smooth="yes"/>
      <point x="426" y="722" type="line" smooth="yes"/>
      <point x="429" y="735"/>
      <point x="421" y="745"/>
      <point x="408" y="745" type="curve" smooth="yes"/>
    </contour>
  </outline>
</glyph>
<glyph name="Ldot" format="1">
  <advance width="623"/>
  <unicode hex="013F"/>
  <outline>
    <contour>
      <point x="429" y="491" type="line" smooth="yes" name="hr00"/>
      <point x="416" y="491"/>
      <point x="404" y="481"/>
      <point x="401" y="468" type="curve" smooth="yes"/>
      <point x="372" y="332" type="line" smooth="yes"/>
      <point x="369" y="319"/>
      <point x="377" y="309"/>
      <point x="390" y="309" type="curve" smooth="yes"/>
      <point x="526" y="309" type="line" smooth="yes"/>
      <point x="539" y="309"/>
      <point x="551" y="319"/>
      <point x="554" y="332" type="curve" smooth="yes"/>
      <point x="583" y="468" type="line" smooth="yes"/>
      <point x="586" y="481"/>
      <point x="578" y="491"/>
      <point x="565" y="491" type="curve" smooth="yes"/>
    </contour>
    <component base="L"/>
  </outline>
</glyph>
<glyph name="circumflex" format="1">
  <advance width="460"/>
  <unicode hex="02C6"/>
  <outline>
    <contour>
      <point x="218" y="765" type="line" smooth="yes" name="hr00"/>
      <point x="203" y="765"/>
      <point x="193" y="760"/>
      <point x="177" y="746" type="curve" smooth="yes"/>
      <point x="39" y="624" type="line" smooth="yes"/>
      <point x="35" y="621"/>
      <point x="32" y="616"/>
      <point x="31" y="611" type="curve" smooth="yes"/>
      <point x="29" y="601"/>
      <point x="34" y="595"/>
      <point x="44" y="595" type="curve" smooth="yes"/>
      <point x="118" y="595" type="line" smooth="yes"/>
      <point x="131" y="595"/>
      <point x="144" y="595"/>
      <point x="159" y="602" type="curve" smooth="yes"/>
      <point x="260" y="644" type="line"/>
      <point x="343" y="602" type="line" smooth="yes"/>
      <point x="356" y="595"/>
      <point x="369" y="595"/>
      <point x="382" y="595" type="curve" smooth="yes"/>
      <point x="440" y="595" type="line" smooth="yes"/>
      <point x="450" y="595"/>
      <point x="457" y="601"/>
      <point x="459" y="611" type="curve" smooth="yes"/>
      <point x="460" y="616"/>
      <point x="459" y="621"/>
      <point x="457" y="624" type="curve" smooth="yes"/>
      <point x="371" y="746" type="line" smooth="yes"/>
      <point x="361" y="760"/>
      <point x="353" y="765"/>
      <point x="338" y="765" type="curve" smooth="yes"/>
    </contour>
  </outline>
</glyph>
<glyph name="caron" format="1">
  <advance width="460"/>
  <unicode hex="02C7"/>
  <outline>
    <contour>
      <point x="272" y="595" type="line" smooth="yes" name="hr00"/>
      <point x="287" y="595"/>
      <point x="297" y="600"/>
      <point x="313" y="614" type="curve" smooth="yes"/>
      <point x="451" y="736" type="line" smooth="yes"/>
      <point x="455" y="739"/>
      <point x="458" y="744"/>
      <point x="459" y="749" type="curve" smooth="yes"/>
      <point x="461" y="759"/>
      <point x="456" y="765"/>
      <point x="446" y="765" type="curve" smooth="yes"/>
      <point x="372" y="765" type="line" smooth="yes"/>
      <point x="359" y="765"/>
      <point x="346" y="765"/>
      <point x="331" y="758" type="curve" smooth="yes"/>
      <point x="230" y="716" type="line"/>
      <point x="147" y="758" type="line" smooth="yes"/>
      <point x="134" y="765"/>
      <point x="121" y="765"/>
      <point x="108" y="765" type="curve" smooth="yes"/>
      <point x="50" y="765" type="line" smooth="yes"/>
      <point x="40" y="765"/>
      <point x="33" y="759"/>
      <point x="31" y="749" type="curve" smooth="yes"/>
      <point x="30" y="744"/>
      <point x="31" y="739"/>
      <point x="33" y="736" type="curve" smooth="yes"/>
      <point x="119" y="614" type="line" smooth="yes"/>
      <point x="129" y="600"/>
      <point x="137" y="595"/>
      <point x="152" y="595" type="curve" smooth="yes"/>
    </contour>
  </outline>
</glyph>
<glyph name="afii10027" format="1">
  <advance width="739"/>
  <unicode hex="0419"/>
  <outline>
    <contour>
      <point x="167" y="700" type="line" smooth="yes" name="hr00"/>
      <point x="152" y="700"/>
      <point x="138" y="688"/>
      <point x="135" y="673" type="curve" smooth="yes"/>
      <point x="-3" y="27" type="line" smooth="yes"/>
      <point x="-6" y="12"/>
      <point x="4" y="0"/>
      <point x="19" y="0" type="curve" smooth="yes"/>
      <point x="177" y="0" type="line" smooth="yes"/>
      <point x="204" y="0"/>
      <point x="217" y="17"/>
      <point x="222" y="23" type="curve" smooth="yes"/>
      <point x="446" y="278" type="line"/>
      <point x="392" y="27" type="line" smooth="yes"/>
      <point x="389" y="12"/>
      <point x="399" y="0"/>
      <point x="414" y="0" type="curve" smooth="yes"/>
      <point x="595" y="0" type="line" smooth="yes"/>
      <point x="610" y="0"/>
      <point x="624" y="12"/>
      <point x="627" y="27" type="curve" smooth="yes"/>
      <point x="765" y="673" type="line" smooth="yes"/>
      <point x="768" y="688"/>
      <point x="758" y="700"/>
      <point x="743" y="700" type="curve" smooth="yes"/>
      <point x="585" y="700" type="line" smooth="yes"/>
      <point x="558" y="700"/>
      <point x="545" y="684"/>
      <point x="539" y="677" type="curve" smooth="yes"/>
      <point x="312" y="400" type="line"/>
      <point x="370" y="673" type="line" smooth="yes"/>
      <point x="373" y="688"/>
      <point x="363" y="700"/>
      <point x="348" y="700" type="curve" smooth="yes"/>
    </contour>
    <component base="Breve" xOffset="277"/>
  </outline>
</glyph>
<glyph name="afii10029" format="1">
  <advance width="797"/>
  <unicode hex="041B"/>
  <outline>
    <contour>
      <point x="-18" y="-10" type="curve" smooth="yes"/>
      <point x="222" y="-10"/>
      <point x="323" y="75"/>
      <point x="364" y="264" type="curve" smooth="yes"/>
      <point x="410" y="480" type="line"/>
      <point x="532" y="480" type="line"/>
      <point x="435" y="27" type="line" smooth="yes"/>
      <point x="432" y="12"/>
      <point x="442" y="0"/>
      <point x="457" y="0" type="curve" smooth="yes" name="hr01"/>
      <point x="653" y="0" type="line" smooth="yes"/>
      <point x="668" y="0"/>
      <point x="682" y="12"/>
      <point x="685" y="27" type="curve" smooth="yes"/>
      <point x="823" y="673" type="line" smooth="yes"/>
      <point x="826" y="688"/>
      <point x="816" y="700"/>
      <point x="801" y="700" type="curve" smooth="yes"/>
      <point x="233" y="700" type="line" smooth="yes"/>
      <point x="218" y="700"/>
      <point x="204" y="688"/>
      <point x="201" y="673" type="curve" smooth="yes"/>
      <point x="114" y="268" type="line" smooth="yes"/>
      <point x="104" y="218"/>
      <point x="73" y="191"/>
      <point x="24" y="191" type="curve" smooth="yes" name="hr02"/>
      <point x="9" y="191"/>
      <point x="-5" y="179"/>
      <point x="-9" y="164" type="curve" smooth="yes"/>
      <point x="-40" y="17" type="line" smooth="yes"/>
      <point x="-43" y="2"/>
      <point x="-33" y="-10"/>
    </contour>
  </outline>
</glyph>
<glyph name="afii10068" format="1">
  <advance width="509"/>
  <unicode hex="0433"/>
  <outline>
    <contour>
      <point x="119" y="520" type="line" smooth="yes" name="hr00"/>
      <point x="104" y="520"/>
      <point x="89" y="508"/>
      <point x="86" y="493" type="curve" smooth="yes"/>
      <point x="-12" y="27" type="line" smooth="yes"/>
      <point x="-15" y="12"/>
      <point x="-5" y="0"/>
      <point x="10" y="0" type="curve" smooth="yes"/>
      <point x="185" y="0" type="line" smooth="yes"/>
      <point x="200" y="0"/>
      <point x="214" y="12"/>
      <point x="217" y="27" type="curve" smooth="yes"/>
      <point x="285" y="345" type="line"/>
      <point x="478" y="345" type="line" smooth="yes"/>
      <point x="493" y="345"/>
      <point x="507" y="357"/>
      <point x="511" y="372" type="curve" smooth="yes"/>
      <point x="536" y="493" type="line" smooth="yes"/>
      <point x="539" y="508"/>
      <point x="530" y="520"/>
      <point x="515" y="520" type="curve" smooth="yes"/>
    </contour>
  </outline>
</glyph>
<glyph name="afii10072" format="1">
  <advance width="904"/>
  <unicode hex="0436"/>
  <outline>
    <contour>
      <point x="609" y="17" type="line" name="hr00"/>
      <point x="613" y="10"/>
      <point x="618" y="0"/>
      <point x="636" y="0" type="curve"/>
      <point x="808" y="0" type="line"/>
      <point x="832" y="0"/>
      <point x="843" y="20"/>
      <point x="835" y="37" type="curve"/>
      <point x="735" y="256" type="line"/>
      <point x="916" y="483" type="line"/>
      <point x="928" y="495"/>
      <point x="926" y="520"/>
      <point x="904" y="520" type="curve"/>
      <point x="712" y="520" type="line"/>
      <point x="692" y="520"/>
      <point x="681" y="507"/>
      <point x="676" y="501" type="curve"/>
      <point x="571" y="361" type="line"/>
      <point x="599" y="493" type="line"/>
      <point x="602" y="508"/>
      <point x="593" y="520"/>
      <point x="578" y="520" type="curve"/>
      <point x="423" y="520" type="line"/>
      <point x="408" y="520"/>
      <point x="393" y="508"/>
      <point x="390" y="493" type="curve"/>
      <point x="363" y="365" type="line"/>
      <point x="300" y="501" type="line"/>
      <point x="297" y="507"/>
      <point x="292" y="520"/>
      <point x="272" y="520" type="curve"/>
      <point x="105" y="520" type="line"/>
      <point x="87" y="520"/>
      <point x="71" y="500"/>
      <point x="77" y="483" type="curve"/>
      <point x="161" y="302" type="line"/>
      <point x="-49" y="37" type="line"/>
      <point x="-60" y="23"/>
      <point x="-57" y="0"/>
      <point x="-36" y="0" type="curve"/>
      <point x="161" y="0" type="line"/>
      <point x="179" y="0"/>
      <point x="189" y="11"/>
      <point x="194" y="17" type="curve"/>
      <point x="323" y="179" type="line"/>
      <point x="291" y="27" type="line"/>
      <point x="288" y="12"/>
      <point x="298" y="0"/>
      <point x="313" y="0" type="curve"/>
      <point x="468" y="0" type="line"/>
      <point x="483" y="0"/>
      <point x="497" y="12"/>
      <point x="500" y="27" type="curve"/>
      <point x="533" y="183" type="line"/>
    </contour>
  </outline>
</glyph>
<glyph name="afii10074" format="1">
  <advance width="663"/>
  <unicode hex="0438"/>
  <outline>
    <contour>
      <point x="529" y="0" type="line" smooth="yes" name="hr00"/>
      <point x="544" y="0"/>
      <point x="558" y="12"/>
      <point x="561" y="27" type="curve" smooth="yes"/>
      <point x="660" y="493" type="line" smooth="yes"/>
      <point x="663" y="508"/>
      <point x="654" y="520"/>
      <point x="639" y="520" type="curve" smooth="yes"/>
      <point x="460" y="520" type="line" smooth="yes"/>
      <point x="450" y="520"/>
      <point x="441" y="515"/>
      <point x="434" y="507" type="curve" smooth="yes"/>
      <point x="286" y="330" type="line"/>
      <point x="320" y="493" type="line" smooth="yes"/>
      <point x="323" y="508"/>
      <point x="314" y="520"/>
      <point x="299" y="520" type="curve" smooth="yes"/>
      <point x="120" y="520" type="line" smooth="yes"/>
      <point x="105" y="520"/>
      <point x="90" y="508"/>
      <point x="87" y="493" type="curve" smooth="yes"/>
      <point x="-12" y="27" type="line" smooth="yes"/>
      <point x="-15" y="12"/>
      <point x="-6" y="0"/>
      <point x="9" y="0" type="curve" smooth="yes"/>
      <point x="188" y="0" type="line" smooth="yes"/>
      <point x="197" y="0"/>
      <point x="206" y="4"/>
      <point x="213" y="11" type="curve" smooth="yes"/>
      <point x="363" y="190" type="line"/>
      <point x="328" y="27" type="line" smooth="yes"/>
      <point x="325" y="12"/>
      <point x="335" y="0"/>
      <point x="350" y="0" type="curve" smooth="yes"/>
    </contour>
  </outline>
</glyph>
<glyph name="afii10077" format="1">
  <advance width="655"/>
  <unicode hex="043B"/>
  <outline>
    <contour>
      <point x="32" y="-10" type="line" smooth="yes"/>
      <point x="177" y="-10"/>
      <point x="282" y="59"/>
      <point x="316" y="219" type="curve" smooth="yes"/>
      <point x="343" y="345" type="line"/>
      <point x="388" y="345" type="line"/>
      <point x="320" y="27" type="line" smooth="yes"/>
      <point x="317" y="12"/>
      <point x="327" y="0"/>
      <point x="342" y="0" type="curve" smooth="yes" name="hr01"/>
      <point x="521" y="0" type="line" smooth="yes"/>
      <point x="536" y="0"/>
      <point x="550" y="12"/>
      <point x="553" y="27" type="curve" smooth="yes"/>
      <point x="652" y="493" type="line" smooth="yes"/>
      <point x="655" y="508"/>
      <point x="646" y="520"/>
      <point x="631" y="520" type="curve" smooth="yes"/>
      <point x="175" y="520" type="line" smooth="yes"/>
      <point x="160" y="520"/>
      <point x="145" y="508"/>
      <point x="142" y="493" type="curve" smooth="yes"/>
      <point x="85" y="225" type="line" smooth="yes"/>
      <point x="79" y="194"/>
      <point x="62" y="175"/>
      <point x="32" y="175" type="curve" smooth="yes" name="hr02"/>
      <point x="25" y="175" type="line" smooth="yes"/>
      <point x="10" y="175"/>
      <point x="-5" y="163"/>
      <point x="-8" y="148" type="curve" smooth="yes"/>
      <point x="-36" y="17" type="line" smooth="yes"/>
      <point x="-39" y="2"/>
      <point x="-30" y="-10"/>
      <point x="-15" y="-10" type="curve" smooth="yes"/>
    </contour>
  </outline>
</glyph>
<glyph name="afii10079" format="1">
  <advance width="663"/>
  <unicode hex="043D"/>
  <outline>
    <contour>
      <point x="529" y="0" type="line" smooth="yes" name="hr00"/>
      <point x="544" y="0"/>
      <point x="558" y="12"/>
      <point x="561" y="27" type="curve" smooth="yes"/>
      <point x="660" y="493" type="line" smooth="yes"/>
      <point x="663" y="508"/>
      <point x="654" y="520"/>
      <point x="639" y="520" type="curve" smooth="yes"/>
      <point x="460" y="520" type="line" smooth="yes"/>
      <point x="445" y="520"/>
      <point x="430" y="508"/>
      <point x="427" y="493" type="curve" smooth="yes"/>
      <point x="397" y="350" type="line"/>
      <point x="290" y="350" type="line"/>
      <point x="320" y="493" type="line" smooth="yes"/>
      <point x="323" y="508"/>
      <point x="314" y="520"/>
      <point x="299" y="520" type="curve" smooth="yes"/>
      <point x="120" y="520" type="line" smooth="yes"/>
      <point x="105" y="520"/>
      <point x="90" y="508"/>
      <point x="87" y="493" type="curve" smooth="yes"/>
      <point x="-12" y="27" type="line" smooth="yes"/>
      <point x="-15" y="12"/>
      <point x="-5" y="0"/>
      <point x="10" y="0" type="curve" smooth="yes"/>
      <point x="189" y="0" type="line" smooth="yes"/>
      <point x="204" y="0"/>
      <point x="218" y="12"/>
      <point x="221" y="27" type="curve" smooth="yes"/>
      <point x="253" y="175" type="line"/>
      <point x="360" y="175" type="line"/>
      <point x="328" y="27" type="line" smooth="yes"/>
      <point x="325" y="12"/>
      <point x="335" y="0"/>
      <point x="350" y="0" type="curve" smooth="yes"/>
    </contour>
  </outline>
</glyph>
<glyph name="afii10193" format="1">
  <advance width="603"/>
  <unicode hex="045F"/>
  <outline>
    <contour>
      <point x="469" y="0" type="line" smooth="yes" name="hr00"/>
      <point x="484" y="0"/>
      <point x="498" y="12"/>
      <point x="501" y="27" type="curve" smooth="yes"/>
      <point x="600" y="493" type="line" smooth="yes"/>
      <point x="603" y="508"/>
      <point x="594" y="520"/>
      <point x="579" y="520" type="curve" smooth="yes"/>
      <point x="420" y="520" type="line" smooth="yes"/>
      <point x="405" y="520"/>
      <point x="390" y="508"/>
      <point x="387" y="493" type="curve" smooth="yes"/>
      <point x="322" y="185" type="line"/>
      <point x="235" y="185" type="line"/>
      <point x="300" y="493" type="line" smooth="yes"/>
      <point x="303" y="508"/>
      <point x="294" y="520"/>
      <point x="279" y="520" type="curve" smooth="yes"/>
      <point x="120" y="520" type="line" smooth="yes"/>
      <point x="105" y="520"/>
      <point x="90" y="508"/>
      <point x="87" y="493" type="curve" smooth="yes"/>
      <point x="-12" y="27" type="line" smooth="yes"/>
      <point x="-15" y="12"/>
      <point x="-5" y="0"/>
      <point x="10" y="0" type="curve" smooth="yes"/>
      <point x="149" y="0" type="line"/>
      <point x="131" y="-83" type="line" smooth="yes"/>
      <point x="128" y="-98"/>
      <point x="137" y="-110"/>
      <point x="152" y="-110" type="curve" smooth="yes"/>
      <point x="281" y="-110" type="line" smooth="yes"/>
      <point x="296" y="-110"/>
      <point x="310" y="-103"/>
      <point x="313" y="-88" type="curve" smooth="yes"/>
      <point x="332" y="0" type="line"/>
    </contour>
  </outline>
</glyph>
<glyph name="bethebrew" format="1">
  <advance width="597"/>
  <unicode hex="05D1"/>
  <outline>
    <contour>
      <point x="126" y="571" type="line" smooth="yes" name="hr00"/>
      <point x="111" y="571"/>
      <point x="96" y="559"/>
      <point x="93" y="544" type="curve" smooth="yes"/>
      <point x="67" y="423" type="line" smooth="yes"/>
      <point x="64" y="408"/>
      <point x="74" y="396"/>
      <point x="89" y="396" type="curve" smooth="yes"/>
      <point x="230" y="396" type="line" smooth="yes"/>
      <point x="279" y="396"/>
      <point x="298" y="371"/>
      <point x="288" y="321" type="curve" smooth="yes"/>
      <point x="257" y="175" type="line"/>
      <point x="32" y="175" type="line" smooth="yes"/>
      <point x="17" y="175"/>
      <point x="2" y="163"/>
      <point x="-1" y="148" type="curve" smooth="yes"/>
      <point x="-27" y="27" type="line" smooth="yes"/>
      <point x="-30" y="12"/>
      <point x="-20" y="0"/>
      <point x="-5" y="0" type="curve" smooth="yes"/>
      <point x="486" y="0" type="line" smooth="yes"/>
      <point x="501" y="0"/>
      <point x="515" y="12"/>
      <point x="518" y="27" type="curve" smooth="yes"/>
      <point x="544" y="148" type="line" smooth="yes"/>
      <point x="547" y="163"/>
      <point x="538" y="175"/>
      <point x="523" y="175" type="curve" smooth="yes"/>
      <point x="490" y="175" type="line"/>
      <point x="520" y="318" type="line" smooth="yes"/>
      <point x="561" y="512"/>
      <point x="437" y="571"/>
      <point x="262" y="571" type="curve" smooth="yes"/>
    </contour>
  </outline>
</glyph>
<glyph name="dalethebrew" format="1">
  <advance width="546"/>
  <unicode hex="05D3"/>
  <outline>
    <contour>
      <point x="553" y="571" type="line" name="hr00"/>
      <point x="568" y="571"/>
      <point x="577" y="559"/>
      <point x="574" y="544" type="curve" smooth="yes"/>
      <point x="548" y="423" type="line" smooth="yes"/>
      <point x="545" y="408"/>
      <point x="531" y="396"/>
      <point x="516" y="396" type="curve" smooth="yes"/>
      <point x="462" y="396" type="line"/>
      <point x="383" y="27" type="line" smooth="yes"/>
      <point x="380" y="12"/>
      <point x="366" y="0"/>
      <point x="351" y="0" type="curve" smooth="yes"/>
      <point x="176" y="0" type="line" smooth="yes"/>
      <point x="161" y="0"/>
      <point x="151" y="12"/>
      <point x="154" y="27" type="curve" smooth="yes"/>
      <point x="233" y="396" type="line"/>
      <point x="58" y="396" type="line" smooth="yes"/>
      <point x="43" y="396"/>
      <point x="33" y="408"/>
      <point x="36" y="423" type="curve" smooth="yes"/>
      <point x="62" y="544" type="line" smooth="yes"/>
      <point x="65" y="559"/>
      <point x="80" y="571"/>
      <point x="95" y="571" type="curve" smooth="yes"/>
    </contour>
  </outline>
</glyph>
<glyph name="vavhebrew" format="1">
  <advance width="327"/>
  <unicode hex="05D5"/>
  <outline>
    <contour>
      <point x="223" y="27" type="line" name="hr00"/>
      <point x="220" y="12"/>
      <point x="206" y="0"/>
      <point x="191" y="0" type="curve" smooth="yes"/>
      <point x="12" y="0" type="line" smooth="yes"/>
      <point x="-3" y="0"/>
      <point x="-13" y="12"/>
      <point x="-10" y="27" type="curve" smooth="yes"/>
      <point x="100" y="544" type="line" smooth="yes"/>
      <point x="103" y="559"/>
      <point x="118" y="571"/>
      <point x="133" y="571" type="curve" smooth="yes"/>
      <point x="312" y="571" type="line" smooth="yes"/>
      <point x="327" y="571"/>
      <point x="336" y="559"/>
      <point x="333" y="544" type="curve" smooth="yes"/>
    </contour>
  </outline>
</glyph>
<glyph name="zayinhebrew" format="1">
  <advance width="498"/>
  <unicode hex="05D6"/>
  <outline>
    <contour>
      <point x="128" y="0" type="curve" name="hr00"/>
      <point x="303" y="0" type="line" smooth="yes"/>
      <point x="318" y="0"/>
      <point x="332" y="12"/>
      <point x="335" y="27" type="curve" smooth="yes"/>
      <point x="393" y="301" type="line" smooth="yes"/>
      <point x="408" y="368"/>
      <point x="418" y="396"/>
      <point x="461" y="396" type="curve" smooth="yes"/>
      <point x="468" y="396" type="line" smooth="yes"/>
      <point x="485" y="396"/>
      <point x="498" y="410"/>
      <point x="500" y="423" type="curve" smooth="yes"/>
      <point x="526" y="544" type="line" smooth="yes"/>
      <point x="529" y="559"/>
      <point x="520" y="571"/>
      <point x="505" y="571" type="curve" smooth="yes"/>
      <point x="97" y="571" type="line" smooth="yes"/>
      <point x="82" y="571"/>
      <point x="67" y="559"/>
      <point x="64" y="544" type="curve" smooth="yes"/>
      <point x="38" y="423" type="line" smooth="yes"/>
      <point x="35" y="408"/>
      <point x="45" y="396"/>
      <point x="60" y="396" type="curve" smooth="yes"/>
      <point x="203" y="396" type="line"/>
      <point x="183" y="380"/>
      <point x="174" y="346"/>
      <point x="164" y="298" type="curve" smooth="yes"/>
      <point x="106" y="27" type="line" smooth="yes"/>
      <point x="103" y="12"/>
      <point x="113" y="0"/>
    </contour>
  </outline>
</glyph>
<glyph name="yodhebrew" format="1">
  <advance width="322"/>
  <unicode hex="05D9"/>
  <outline>
    <contour>
      <point x="270" y="267" type="line" name="hr00"/>
      <point x="267" y="252"/>
      <point x="253" y="240"/>
      <point x="238" y="240" type="curve" smooth="yes"/>
      <point x="59" y="240" type="line" smooth="yes"/>
      <point x="44" y="240"/>
      <point x="34" y="252"/>
      <point x="37" y="267" type="curve" smooth="yes"/>
      <point x="96" y="544" type="line" smooth="yes"/>
      <point x="99" y="559"/>
      <point x="114" y="571"/>
      <point x="129" y="571" type="curve" smooth="yes"/>
      <point x="308" y="571" type="line" smooth="yes"/>
      <point x="323" y="571"/>
      <point x="332" y="559"/>
      <point x="329" y="544" type="curve" smooth="yes"/>
    </contour>
  </outline>
</glyph>
<glyph name="finalkafhebrew" format="1">
  <advance width="537"/>
  <unicode hex="05DA"/>
  <outline>
    <contour>
      <point x="507" y="396" type="line" smooth="yes" name="hr00"/>
      <point x="522" y="396"/>
      <point x="536" y="408"/>
      <point x="539" y="423" type="curve" smooth="yes"/>
      <point x="565" y="544" type="line" smooth="yes"/>
      <point x="568" y="559"/>
      <point x="559" y="571"/>
      <point x="544" y="571" type="curve" smooth="yes"/>
      <point x="96" y="571" type="line" smooth="yes"/>
      <point x="81" y="571"/>
      <point x="66" y="559"/>
      <point x="63" y="544" type="curve" smooth="yes"/>
      <point x="37" y="423" type="line" smooth="yes"/>
      <point x="34" y="408"/>
      <point x="44" y="396"/>
      <point x="59" y="396" type="curve" smooth="yes"/>
      <point x="233" y="396" type="line"/>
      <point x="128" y="-97" type="line" smooth="yes"/>
      <point x="125" y="-112"/>
      <point x="134" y="-124"/>
      <point x="149" y="-124" type="curve" smooth="yes"/>
      <point x="316" y="-124" type="line" smooth="yes"/>
      <point x="331" y="-124"/>
      <point x="346" y="-112"/>
      <point x="349" y="-97" type="curve" smooth="yes"/>
      <point x="454" y="396" type="line"/>
    </contour>
  </outline>
</glyph>
<glyph name="lamedhebrew" format="1">
  <advance width="555"/>
  <unicode hex="05DC"/>
  <outline>
    <contour>
      <point x="302" y="386" type="line" name="hr00"/>
      <point x="60" y="386" type="line" smooth="yes"/>
      <point x="45" y="386"/>
      <point x="35" y="398"/>
      <point x="38" y="413" type="curve" smooth="yes"/>
      <point x="96" y="683" type="line" smooth="yes"/>
      <point x="99" y="698"/>
      <point x="113" y="710"/>
      <point x="128" y="710" type="curve" smooth="yes"/>
      <point x="281" y="710" type="line" smooth="yes"/>
      <point x="296" y="710"/>
      <point x="306" y="698"/>
      <point x="303" y="683" type="curve" smooth="yes"/>
      <point x="279" y="571" type="line"/>
      <point x="546" y="571" type="line" smooth="yes"/>
      <point x="561" y="571"/>
      <point x="570" y="559"/>
      <point x="567" y="544" type="curve" smooth="yes"/>
      <point x="504" y="245" type="line" smooth="yes"/>
      <point x="472" y="96"/>
      <point x="383" y="-10"/>
      <point x="178" y="-10" type="curve" smooth="yes"/>
      <point x="121" y="-10" type="line" smooth="yes"/>
      <point x="106" y="-10"/>
      <point x="97" y="2"/>
      <point x="100" y="17" type="curve" smooth="yes"/>
      <point x="128" y="148" type="line" smooth="yes"/>
      <point x="131" y="163"/>
      <point x="146" y="175"/>
      <point x="161" y="175" type="curve" smooth="yes"/>
      <point x="193" y="175" type="line" smooth="yes"/>
      <point x="227" y="175"/>
      <point x="261" y="195"/>
      <point x="273" y="250" type="curve" smooth="yes"/>
    </contour>
  </outline>
</glyph>
<glyph name="finalmemhebrew" format="1">
  <advance width="648"/>
  <unicode hex="05DD"/>
  <outline>
    <contour>
      <point x="133" y="571" type="line" smooth="yes" name="hr00"/>
      <point x="118" y="571"/>
      <point x="103" y="559"/>
      <point x="100" y="544" type="curve" smooth="yes"/>
      <point x="-10" y="27" type="line" smooth="yes"/>
      <point x="-13" y="12"/>
      <point x="-3" y="0"/>
      <point x="12" y="0" type="curve" smooth="yes"/>
      <point x="517" y="0" type="line" smooth="yes"/>
      <point x="533" y="0"/>
      <point x="547" y="14"/>
      <point x="550" y="28" type="curve" smooth="yes"/>
      <point x="614" y="326" type="line" smooth="yes"/>
      <point x="654" y="515"/>
      <point x="545" y="571"/>
      <point x="375" y="571" type="curve" smooth="yes"/>
    </contour>
    <contour>
      <point x="343" y="396" type="line" smooth="yes"/>
      <point x="392" y="396"/>
      <point x="411" y="371"/>
      <point x="401" y="321" type="curve" smooth="yes"/>
      <point x="370" y="175" type="line"/>
      <point x="219" y="175" type="line"/>
      <point x="266" y="396" type="line"/>
    </contour>
  </outline>
</glyph>
<glyph name="finalnunhebrew" format="1">
  <advance width="317"/>
  <unicode hex="05DF"/>
  <outline>
    <contour>
      <point x="187" y="-97" type="line" name="hr00"/>
      <point x="184" y="-112"/>
      <point x="169" y="-124"/>
      <point x="154" y="-124" type="curve" smooth="yes"/>
      <point x="-15" y="-124" type="line" smooth="yes"/>
      <point x="-30" y="-124"/>
      <point x="-39" y="-112"/>
      <point x="-36" y="-97" type="curve" smooth="yes"/>
      <point x="100" y="544" type="line" smooth="yes"/>
      <point x="103" y="559"/>
      <point x="118" y="571"/>
      <point x="133" y="571" type="curve" smooth="yes"/>
      <point x="302" y="571" type="line" smooth="yes"/>
      <point x="317" y="571"/>
      <point x="326" y="559"/>
      <point x="323" y="544" type="curve" smooth="yes"/>
    </contour>
  </outline>
</glyph>
<glyph name="ayinhebrew" format="1">
  <advance width="674"/>
  <unicode hex="05E2"/>
  <outline>
    <contour>
      <point x="294" y="0" type="line" smooth="yes" name="hr00"/>
      <point x="496" y="0"/>
      <point x="581" y="56"/>
      <point x="622" y="245" type="curve"/>
      <point x="685" y="544" type="line" smooth="yes"/>
      <point x="688" y="559"/>
      <point x="679" y="571"/>
      <point x="664" y="571" type="curve" smooth="yes"/>
      <point x="495" y="571" type="line" smooth="yes"/>
      <point x="480" y="571"/>
      <point x="466" y="560"/>
      <point x="462" y="545" type="curve"/>
      <point x="400" y="250" type="line" smooth="yes"/>
      <point x="394" y="222"/>
      <point x="377" y="196"/>
      <point x="353" y="189" type="curve"/>
      <point x="311" y="546" type="line" smooth="yes"/>
      <point x="310" y="552"/>
      <point x="306" y="571"/>
      <point x="279" y="571" type="curve" smooth="yes"/>
      <point x="129" y="571" type="line" smooth="yes"/>
      <point x="110" y="571"/>
      <point x="96" y="558"/>
      <point x="98" y="540" type="curve" smooth="yes"/>
      <point x="146" y="175" type="line"/>
      <point x="29" y="175" type="line" smooth="yes"/>
      <point x="14" y="175"/>
      <point x="-1" y="163"/>
      <point x="-4" y="148" type="curve" smooth="yes"/>
      <point x="-30" y="27" type="line" smooth="yes"/>
      <point x="-33" y="12"/>
      <point x="-23" y="0"/>
      <point x="-8" y="0" type="curve" smooth="yes"/>
    </contour>
  </outline>
</glyph>
<glyph name="finalpehebrew" format="1">
  <advance width="607"/>
  <unicode hex="05E3"/>
  <outline>
    <contour>
      <point x="449" y="-124" type="line" smooth="yes" name="hr00"/>
      <point x="464" y="-124"/>
      <point x="479" y="-112"/>
      <point x="482" y="-97" type="curve" smooth="yes"/>
      <point x="577" y="351" type="line" smooth="yes"/>
      <point x="607" y="490"/>
      <point x="517" y="571"/>
      <point x="342" y="571" type="curve" smooth="yes"/>
      <point x="111" y="571" type="line" smooth="yes"/>
      <point x="96" y="571"/>
      <point x="81" y="559"/>
      <point x="78" y="544" type="curve" smooth="yes"/>
      <point x="41" y="368" type="line" smooth="yes"/>
      <point x="6" y="207"/>
      <point x="101" y="144"/>
      <point x="213" y="144" type="curve" smooth="yes"/>
      <point x="224" y="144" type="line" smooth="yes"/>
      <point x="239" y="144"/>
      <point x="254" y="156"/>
      <point x="257" y="171" type="curve" smooth="yes"/>
      <point x="284" y="299" type="line" smooth="yes"/>
      <point x="287" y="314"/>
      <point x="278" y="326"/>
      <point x="263" y="326" type="curve" smooth="yes"/>
      <point x="256" y="326" type="line" smooth="yes"/>
      <point x="233" y="326"/>
      <point x="226" y="340"/>
      <point x="233" y="373" type="curve" smooth="yes"/>
      <point x="238" y="396" type="line"/>
      <point x="311" y="396" type="line" smooth="yes"/>
      <point x="360" y="396"/>
      <point x="370" y="376"/>
      <point x="364" y="346" type="curve" smooth="yes"/>
      <point x="270" y="-97" type="line" smooth="yes"/>
      <point x="267" y="-112"/>
      <point x="276" y="-124"/>
      <point x="291" y="-124" type="curve" smooth="yes"/>
    </contour>
  </outline>
</glyph>
<glyph name="finaltsadihebrew" format="1">
  <advance width="578"/>
  <unicode hex="05E5"/>
  <outline>
    <contour>
      <point x="276" y="547" type="line" name="hr00"/>
      <point x="273" y="559"/>
      <point x="267" y="571"/>
      <point x="247" y="571" type="curve" smooth="yes"/>
      <point x="90" y="571" type="line" smooth="yes"/>
      <point x="73" y="571"/>
      <point x="59" y="555"/>
      <point x="62" y="539" type="curve"/>
      <point x="171" y="-100" type="line"/>
      <point x="174" y="-112"/>
      <point x="181" y="-124"/>
      <point x="201" y="-124" type="curve" smooth="yes"/>
      <point x="355" y="-124" type="line" smooth="yes"/>
      <point x="376" y="-124"/>
      <point x="384" y="-108"/>
      <point x="381" y="-91" type="curve" smooth="yes"/>
      <point x="341" y="151" type="line"/>
      <point x="463" y="185"/>
      <point x="547" y="282"/>
      <point x="577" y="422" type="curve" smooth="yes"/>
      <point x="603" y="542" type="line" smooth="yes"/>
      <point x="606" y="557"/>
      <point x="597" y="571"/>
      <point x="582" y="571" type="curve" smooth="yes"/>
      <point x="433" y="571" type="line" smooth="yes"/>
      <point x="418" y="571"/>
      <point x="403" y="559"/>
      <point x="400" y="542" type="curve" smooth="yes"/>
      <point x="376" y="431" type="line" smooth="yes"/>
      <point x="365" y="381"/>
      <point x="336" y="354"/>
      <point x="310" y="337" type="curve"/>
    </contour>
  </outline>
</glyph>
<glyph name="tsadihebrew" format="1">
  <advance width="606"/>
  <unicode hex="05E6"/>
  <outline>
    <contour>
      <point x="302" y="552" type="line" smooth="yes" name="hr00"/>
      <point x="299" y="557"/>
      <point x="293" y="571"/>
      <point x="270" y="571" type="curve" smooth="yes"/>
      <point x="103" y="571" type="line" smooth="yes"/>
      <point x="87" y="571"/>
      <point x="70" y="554"/>
      <point x="79" y="537" type="curve" smooth="yes"/>
      <point x="278" y="180" type="line"/>
      <point x="29" y="180" type="line" smooth="yes"/>
      <point x="14" y="180"/>
      <point x="-1" y="168"/>
      <point x="-4" y="153" type="curve" smooth="yes"/>
      <point x="-31" y="27" type="line" smooth="yes"/>
      <point x="-34" y="12"/>
      <point x="-24" y="0"/>
      <point x="-9" y="0" type="curve" smooth="yes"/>
      <point x="457" y="0" type="line" smooth="yes"/>
      <point x="472" y="0"/>
      <point x="486" y="12"/>
      <point x="489" y="27" type="curve" smooth="yes"/>
      <point x="513" y="141" type="line" smooth="yes"/>
      <point x="517" y="159"/>
      <point x="510" y="168"/>
      <point x="506" y="176" type="curve" smooth="yes"/>
      <point x="460" y="260" type="line"/>
      <point x="552" y="312"/>
      <point x="591" y="373"/>
      <point x="610" y="463" type="curve" smooth="yes"/>
      <point x="627" y="542" type="line" smooth="yes"/>
      <point x="630" y="557"/>
      <point x="621" y="571"/>
      <point x="606" y="571" type="curve" smooth="yes"/>
      <point x="457" y="571" type="line" smooth="yes"/>
      <point x="442" y="571"/>
      <point x="427" y="559"/>
      <point x="424" y="542" type="curve" smooth="yes"/>
      <point x="409" y="472" type="line" smooth="yes"/>
      <point x="403" y="444"/>
      <point x="392" y="422"/>
      <point x="380" y="407" type="curve"/>
    </contour>
  </outline>
</glyph>
<glyph name="qofhebrew" format="1">
  <advance width="696"/>
  <unicode hex="05E7"/>
  <outline>
    <contour>
      <point x="455" y="396" type="line" name="hr00"/>
      <point x="96" y="396" type="line" smooth="yes"/>
      <point x="81" y="396"/>
      <point x="71" y="408"/>
      <point x="74" y="423" type="curve" smooth="yes"/>
      <point x="100" y="544" type="line" smooth="yes"/>
      <point x="103" y="559"/>
      <point x="118" y="571"/>
      <point x="133" y="571" type="curve" smooth="yes"/>
      <point x="687" y="571" type="line" smooth="yes"/>
      <point x="702" y="571"/>
      <point x="711" y="559"/>
      <point x="708" y="544" type="curve" smooth="yes"/>
      <point x="645" y="245" type="line" smooth="yes"/>
      <point x="613" y="96"/>
      <point x="525" y="-10"/>
      <point x="320" y="-10" type="curve" smooth="yes"/>
      <point x="292" y="-10" type="line" smooth="yes"/>
      <point x="277" y="-10"/>
      <point x="268" y="2"/>
      <point x="271" y="17" type="curve" smooth="yes"/>
      <point x="299" y="148" type="line" smooth="yes"/>
      <point x="302" y="163"/>
      <point x="317" y="175"/>
      <point x="332" y="175" type="curve" smooth="yes"/>
      <point x="344" y="175" type="line" smooth="yes"/>
      <point x="378" y="175"/>
      <point x="412" y="195"/>
      <point x="424" y="250" type="curve" smooth="yes"/>
    </contour>
    <contour>
      <point x="167" y="-164" type="line"/>
      <point x="163" y="-179"/>
      <point x="149" y="-191"/>
      <point x="134" y="-191" type="curve" smooth="yes"/>
      <point x="-29" y="-191" type="line" smooth="yes"/>
      <point x="-44" y="-191"/>
      <point x="-54" y="-179"/>
      <point x="-50" y="-164" type="curve" smooth="yes"/>
      <point x="54" y="329" type="line" smooth="yes"/>
      <point x="58" y="344"/>
      <point x="72" y="356"/>
      <point x="87" y="356" type="curve" smooth="yes"/>
      <point x="250" y="356" type="line" smooth="yes"/>
      <point x="265" y="356"/>
      <point x="275" y="344"/>
      <point x="271" y="329" type="curve" smooth="yes"/>
    </contour>
  </outline>
</glyph>
<glyph name="reshhebrew" format="1">
  <advance width="541"/>
  <unicode hex="05E8"/>
  <outline>
    <contour>
      <point x="95" y="571" type="line" name="hr00"/>
      <point x="80" y="571"/>
      <point x="65" y="559"/>
      <point x="62" y="544" type="curve" smooth="yes"/>
      <point x="36" y="423" type="line" smooth="yes"/>
      <point x="33" y="408"/>
      <point x="43" y="396"/>
      <point x="58" y="396" type="curve" smooth="yes"/>
      <point x="225" y="396" type="line" smooth="yes"/>
      <point x="274" y="396"/>
      <point x="293" y="371"/>
      <point x="283" y="321" type="curve" smooth="yes"/>
      <point x="220" y="26" type="line" smooth="yes"/>
      <point x="217" y="11"/>
      <point x="227" y="0"/>
      <point x="242" y="0" type="curve" smooth="yes"/>
      <point x="411" y="0" type="line" smooth="yes"/>
      <point x="426" y="0"/>
      <point x="440" y="12"/>
      <point x="443" y="27" type="curve" smooth="yes"/>
      <point x="507" y="327" type="line" smooth="yes"/>
      <point x="547" y="516"/>
      <point x="433" y="571"/>
      <point x="258" y="571" type="curve" smooth="yes"/>
    </contour>
  </outline>
</glyph>
<glyph name="shinhebrew" format="1">
  <advance width="873"/>
  <unicode hex="05E9"/>
  <outline>
    <contour>
      <point x="296" y="545" type="line" smooth="yes" name="hr00"/>
      <point x="300" y="560"/>
      <point x="290" y="571"/>
      <point x="275" y="571" type="curve" smooth="yes"/>
      <point x="126" y="571" type="line" smooth="yes"/>
      <point x="111" y="571"/>
      <point x="96" y="559"/>
      <point x="93" y="544" type="curve" smooth="yes"/>
      <point x="27" y="235" type="line" smooth="yes"/>
      <point x="-6" y="76"/>
      <point x="91" y="-10"/>
      <point x="271" y="-10" type="curve" smooth="yes"/>
      <point x="491" y="-10" type="line" smooth="yes"/>
      <point x="701" y="-10"/>
      <point x="786" y="76"/>
      <point x="819" y="235" type="curve" smooth="yes"/>
      <point x="885" y="544" type="line" smooth="yes"/>
      <point x="888" y="559"/>
      <point x="879" y="571"/>
      <point x="864" y="571" type="curve" smooth="yes"/>
      <point x="715" y="571" type="line" smooth="yes"/>
      <point x="700" y="571"/>
      <point x="686" y="560"/>
      <point x="682" y="545" type="curve" smooth="yes"/>
      <point x="618" y="240" type="line" smooth="yes"/>
      <point x="607" y="190"/>
      <point x="567" y="165"/>
      <point x="518" y="165" type="curve" smooth="yes"/>
      <point x="367" y="165" type="line"/>
      <point x="475" y="204"/>
      <point x="504" y="278"/>
      <point x="520" y="357" type="curve" smooth="yes"/>
      <point x="560" y="542" type="line" smooth="yes"/>
      <point x="563" y="557"/>
      <point x="554" y="571"/>
      <point x="539" y="571" type="curve" smooth="yes"/>
      <point x="400" y="571" type="line" smooth="yes"/>
      <point x="385" y="571"/>
      <point x="370" y="559"/>
      <point x="367" y="542" type="curve" smooth="yes"/>
      <point x="329" y="364" type="line" smooth="yes"/>
      <point x="320" y="321"/>
      <point x="293" y="292"/>
      <point x="240" y="278" type="curve"/>
    </contour>
  </outline>
</glyph>
<glyph name="endash" format="1">
  <advance width="559"/>
  <unicode hex="2013"/>
  <outline>
    <contour>
      <point x="93" y="398" type="line" smooth="yes" name="hr00"/>
      <point x="78" y="398"/>
      <point x="64" y="386"/>
      <point x="60" y="371" type="curve" smooth="yes"/>
      <point x="30" y="229" type="line" smooth="yes"/>
      <point x="27" y="214"/>
      <point x="36" y="202"/>
      <point x="51" y="202" type="curve" smooth="yes"/>
      <point x="466" y="202" type="line" smooth="yes"/>
      <point x="481" y="202"/>
      <point x="496" y="214"/>
      <point x="499" y="229" type="curve" smooth="yes"/>
      <point x="529" y="371" type="line" smooth="yes"/>
      <point x="533" y="386"/>
      <point x="523" y="398"/>
      <point x="508" y="398" type="curve" smooth="yes"/>
    </contour>
  </outline>
</glyph>
<glyph name="emdash" format="1">
  <advance width="749"/>
  <unicode hex="2014"/>
  <outline>
    <contour>
      <point x="93" y="398" type="line" smooth="yes" name="hr00"/>
      <point x="78" y="398"/>
      <point x="64" y="386"/>
      <point x="60" y="371" type="curve" smooth="yes"/>
      <point x="30" y="229" type="line" smooth="yes"/>
      <point x="27" y="214"/>
      <point x="36" y="202"/>
      <point x="51" y="202" type="curve" smooth="yes"/>
      <point x="656" y="202" type="line" smooth="yes"/>
      <point x="671" y="202"/>
      <point x="686" y="214"/>
      <point x="689" y="229" type="curve" smooth="yes"/>
      <point x="719" y="371" type="line" smooth="yes"/>
      <point x="723" y="386"/>
      <point x="713" y="398"/>
      <point x="698" y="398" type="curve" smooth="yes"/>
    </contour>
  </outline>
</glyph>
<glyph name="bullet" format="1">
  <advance width="387"/>
  <unicode hex="2022"/>
  <outline>
    <contour>
      <point x="65" y="350" type="curve" smooth="yes" name="hr00"/>
      <point x="49" y="273"/>
      <point x="98" y="210"/>
      <point x="175" y="210" type="curve" smooth="yes"/>
      <point x="252" y="210"/>
      <point x="329" y="273"/>
      <point x="345" y="350" type="curve" smooth="yes"/>
      <point x="361" y="427"/>
      <point x="312" y="490"/>
      <point x="235" y="490" type="curve" smooth="yes"/>
      <point x="158" y="490"/>
      <point x="81" y="427"/>
    </contour>
  </outline>
</glyph>
<glyph name="oneinferior" format="1">
  <advance width="294"/>
  <unicode hex="2081"/>
  <outline>
    <contour>
      <point x="229" y="158" type="line" smooth="yes" name="hr00"/>
      <point x="232" y="171"/>
      <point x="225" y="180"/>
      <point x="212" y="180" type="curve" smooth="yes"/>
      <point x="124" y="180" type="line" smooth="yes"/>
      <point x="114" y="180"/>
      <point x="107" y="178"/>
      <point x="99" y="173" type="curve" smooth="yes"/>
      <point x="-31" y="86" type="line" smooth="yes"/>
      <point x="-43" y="78"/>
      <point x="-48" y="65"/>
      <point x="-42" y="55" type="curve" smooth="yes"/>
      <point x="-10" y="1" type="line"/>
      <point x="-5" y="-10"/>
      <point x="9" y="-11"/>
      <point x="20" y="-4" type="curve" smooth="yes"/>
      <point x="67" y="27" type="line"/>
      <point x="29" y="-148" type="line" smooth="yes"/>
      <point x="26" y="-161"/>
      <point x="33" y="-170"/>
      <point x="46" y="-170" type="curve" smooth="yes"/>
      <point x="137" y="-170" type="line" smooth="yes"/>
      <point x="150" y="-170"/>
      <point x="161" y="-161"/>
      <point x="164" y="-148" type="curve" smooth="yes"/>
    </contour>
  </outline>
</glyph>
<glyph name="seveninferior" format="1">
  <advance width="329"/>
  <unicode hex="2087"/>
  <outline>
    <contour>
      <point x="-34" y="-149" type="curve" smooth="yes" name="hr00"/>
      <point x="-37" y="-162"/>
      <point x="-32" y="-170"/>
      <point x="-19" y="-170" type="curve" smooth="yes"/>
      <point x="78" y="-170" type="line" smooth="yes"/>
      <point x="92" y="-170"/>
      <point x="101" y="-158"/>
      <point x="109" y="-146" type="curve" smooth="yes"/>
      <point x="259" y="75" type="line" smooth="yes"/>
      <point x="264" y="81"/>
      <point x="268" y="89"/>
      <point x="271" y="100" type="curve" smooth="yes"/>
      <point x="283" y="158" type="line" smooth="yes"/>
      <point x="286" y="171"/>
      <point x="279" y="180"/>
      <point x="266" y="180" type="curve" smooth="yes"/>
      <point x="15" y="180" type="line" smooth="yes"/>
      <point x="2" y="180"/>
      <point x="-9" y="171"/>
      <point x="-12" y="158" type="curve" smooth="yes"/>
      <point x="-27" y="89" type="line" smooth="yes"/>
      <point x="-29" y="76"/>
      <point x="-23" y="67"/>
      <point x="-10" y="67" type="curve" smooth="yes"/>
      <point x="110" y="67" type="line"/>
      <point x="-27" y="-134" type="line" smooth="yes"/>
      <point x="-30" y="-138"/>
      <point x="-33" y="-145"/>
    </contour>
  </outline>
</glyph>
<glyph name="parenleftinferior" format="1">
  <advance width="258"/>
  <unicode hex="208D"/>
  <outline>
    <contour>
      <point x="120" y="-114" type="curve" smooth="yes" name="hr00"/>
      <point x="76" y="-103"/>
      <point x="66" y="-62"/>
      <point x="82" y="10" type="curve" smooth="yes"/>
      <point x="97" y="82"/>
      <point x="124" y="123"/>
      <point x="173" y="134" type="curve" smooth="yes"/>
      <point x="188" y="137"/>
      <point x="201" y="140"/>
      <point x="204" y="155" type="curve" smooth="yes"/>
      <point x="219" y="223" type="line" smooth="yes"/>
      <point x="222" y="238"/>
      <point x="215" y="245"/>
      <point x="200" y="245" type="curve" smooth="yes"/>
      <point x="87" y="245"/>
      <point x="4" y="203"/>
      <point x="-36" y="15" type="curve" smooth="yes"/>
      <point x="-76" y="-173"/>
      <point x="47" y="-225"/>
      <point x="100" y="-225" type="curve" smooth="yes"/>
      <point x="115" y="-225"/>
      <point x="125" y="-218"/>
      <point x="128" y="-203" type="curve" smooth="yes"/>
      <point x="143" y="-135" type="line" smooth="yes"/>
      <point x="146" y="-120"/>
      <point x="134" y="-117"/>
    </contour>
  </outline>
</glyph>
<glyph name="commaaccent" format="1">
  <advance width="293"/>
  <unicode hex="F6C3"/>
  <outline>
    <contour>
      <point x="32" y="-226" type="line" smooth="yes" name="hr00"/>
      <point x="27" y="-238"/>
      <point x="34" y="-250"/>
      <point x="49" y="-250" type="curve" smooth="yes"/>
      <point x="154" y="-250" type="line" smooth="yes"/>
      <point x="180" y="-250"/>
      <point x="196" y="-231"/>
      <point x="204" y="-218" type="curve" smooth="yes"/>
      <point x="289" y="-79" type="line"/>
      <point x="296" y="-67"/>
      <point x="291" y="-50"/>
      <point x="274" y="-50" type="curve" smooth="yes"/>
      <point x="134" y="-50" type="line" smooth="yes"/>
      <point x="107" y="-50"/>
      <point x="89" y="-71"/>
      <point x="83" y="-89" type="curve" smooth="yes"/>
    </contour>
  </outline>
</glyph>
<glyph name="Macron" format="1">
  <advance width="750"/>
  <unicode hex="F6D0"/>
  <outline>
    <contour>
      <point x="354" y="900" type="line" smooth="yes" name="hr00"/>
      <point x="341" y="900"/>
      <point x="329" y="890"/>
      <point x="326" y="877" type="curve" smooth="yes"/>
      <point x="304" y="773" type="line" smooth="yes"/>
      <point x="301" y="760"/>
      <point x="309" y="750"/>
      <point x="322" y="750" type="curve" smooth="yes"/>
      <point x="699" y="750" type="line" smooth="yes"/>
      <point x="712" y="750"/>
      <point x="724" y="760"/>
      <point x="727" y="773" type="curve" smooth="yes"/>
      <point x="749" y="877" type="line" smooth="yes"/>
      <point x="752" y="890"/>
      <point x="744" y="900"/>
      <point x="731" y="900" type="curve" smooth="yes"/>
    </contour>
  </outline>
</glyph>
<glyph name="fi" format="1">
  <advance width="785"/>
  <unicode hex="FB01"/>
  <outline>
    <contour>
      <point x="651" y="0" type="line" smooth="yes" name="hr00"/>
      <point x="666" y="0"/>
      <point x="680" y="12"/>
      <point x="683" y="27" type="curve" smooth="yes"/>
      <point x="782" y="493" type="line" smooth="yes"/>
      <point x="785" y="508"/>
      <point x="776" y="520"/>
      <point x="761" y="520" type="curve" smooth="yes"/>
      <point x="388" y="520" type="line"/>
      <point x="391" y="532" type="line" smooth="yes"/>
      <point x="395" y="553"/>
      <point x="411" y="565"/>
      <point x="441" y="565" type="curve" smooth="yes"/>
      <point x="771" y="565" type="line" smooth="yes"/>
      <point x="786" y="565"/>
      <point x="800" y="577"/>
      <point x="803" y="592" type="curve" smooth="yes"/>
      <point x="829" y="713" type="line" smooth="yes"/>
      <point x="832" y="728"/>
      <point x="823" y="740"/>
      <point x="808" y="740" type="curve" smooth="yes"/>
      <point x="446" y="740" type="line" smooth="yes"/>
      <point x="301" y="740"/>
      <point x="198" y="701"/>
      <point x="163" y="537" type="curve" smooth="yes"/>
      <point x="159" y="520" type="line"/>
      <point x="90" y="520" type="line" smooth="yes"/>
      <point x="75" y="520"/>
      <point x="60" y="508"/>
      <point x="57" y="493" type="curve" smooth="yes"/>
      <point x="32" y="372" type="line"/>
      <point x="28" y="357"/>
      <point x="38" y="345"/>
      <point x="53" y="345" type="curve" smooth="yes"/>
      <point x="122" y="345" type="line"/>
      <point x="54" y="27" type="line" smooth="yes"/>
      <point x="51" y="12"/>
      <point x="61" y="0"/>
      <point x="76" y="0" type="curve" smooth="yes"/>
      <point x="251" y="0" type="line" smooth="yes"/>
      <point x="266" y="0"/>
      <point x="280" y="12"/>
      <point x="283" y="27" type="curve" smooth="yes"/>
      <point x="351" y="345" type="line"/>
      <point x="521" y="345" type="line"/>
      <point x="454" y="27" type="line" smooth="yes"/>
      <point x="451" y="12"/>
      <point x="461" y="0"/>
      <point x="476" y="0" type="curve" smooth="yes"/>
    </contour>
  </outline>
</glyph>
<glyph name="shinsindothebrew" format="1">
  <advance width="873"/>
  <unicode hex="FB2B"/>
  <outline>
    <contour>
      <point x="226" y="611" type="line" smooth="yes" name="hr00"/>
      <point x="241" y="611"/>
      <point x="256" y="623"/>
      <point x="259" y="638" type="curve" smooth="yes"/>
      <point x="267" y="673" type="line" smooth="yes"/>
      <point x="270" y="688"/>
      <point x="260" y="700"/>
      <point x="245" y="700" type="curve" smooth="yes"/>
      <point x="210" y="700" type="line" smooth="yes"/>
      <point x="195" y="700"/>
      <point x="181" y="688"/>
      <point x="178" y="673" type="curve" smooth="yes"/>
      <point x="170" y="638" type="line" smooth="yes"/>
      <point x="167" y="623"/>
      <point x="176" y="611"/>
      <point x="191" y="611" type="curve" smooth="yes"/>
    </contour>
    <component base="shinhebrew"/>
  </outline>
</glyph>
<glyph name="shindageshsindothebrew" format="1">
  <advance width="873"/>
  <unicode hex="FB2D"/>
  <outline>
    <contour>
      <point x="573" y="240" type="line" smooth="yes" name="hr00"/>
      <point x="588" y="240"/>
      <point x="602" y="252"/>
      <point x="605" y="267" type="curve" smooth="yes"/>
      <point x="613" y="302" type="line" smooth="yes"/>
      <point x="616" y="317"/>
      <point x="606" y="329"/>
      <point x="591" y="329" type="curve" smooth="yes"/>
      <point x="556" y="329" type="line" smooth="yes"/>
      <point x="541" y="329"/>
      <point x="527" y="317"/>
      <point x="524" y="302" type="curve" smooth="yes"/>
      <point x="516" y="267" type="line" smooth="yes"/>
      <point x="513" y="252"/>
      <point x="523" y="240"/>
      <point x="538" y="240" type="curve" smooth="yes"/>
    </contour>
    <contour>
      <point x="809" y="611" type="line" smooth="yes"/>
      <point x="824" y="611"/>
      <point x="839" y="623"/>
      <point x="842" y="638" type="curve" smooth="yes"/>
      <point x="850" y="673" type="line" smooth="yes"/>
      <point x="853" y="688"/>
      <point x="843" y="700"/>
      <point x="828" y="700" type="curve" smooth="yes"/>
      <point x="793" y="700" type="line" smooth="yes"/>
      <point x="778" y="700"/>
      <point x="764" y="688"/>
      <point x="761" y="673" type="curve" smooth="yes"/>
      <point x="753" y="638" type="line" smooth="yes"/>
      <point x="750" y="623"/>
      <point x="759" y="611"/>
      <point x="774" y="611" type="curve" smooth="yes"/>
    </contour>
    <component base="shinhebrew"/>
  </outline>
</glyph>
<glyph name="hedageshhebrew" format="1">
  <advance width="667"/>
  <unicode hex="FB34"/>
  <outline>
    <contour>
      <point x="344" y="241" type="line" smooth="yes" name="hr00"/>
      <point x="359" y="241"/>
      <point x="373" y="253"/>
      <point x="376" y="268" type="curve" smooth="yes"/>
      <point x="384" y="303" type="line" smooth="yes"/>
      <point x="387" y="318"/>
      <point x="378" y="330"/>
      <point x="363" y="330" type="curve" smooth="yes"/>
      <point x="328" y="330" type="line" smooth="yes"/>
      <point x="313" y="330"/>
      <point x="298" y="318"/>
      <point x="295" y="303" type="curve" smooth="yes"/>
      <point x="287" y="268" type="line" smooth="yes"/>
      <point x="284" y="253"/>
      <point x="294" y="241"/>
      <point x="309" y="241" type="curve" smooth="yes"/>
    </contour>
    <component base="hehebrew"/>
  </outline>
</glyph>
<glyph name="vavdageshhebrew" format="1">
  <advance width="417"/>
  <unicode hex="FB35"/>
  <outline>
    <contour>
      <point x="64" y="241" type="line" smooth="yes" name="hr00"/>
      <point x="79" y="241"/>
      <point x="93" y="253"/>
      <point x="96" y="268" type="curve" smooth="yes"/>
      <point x="104" y="303" type="line" smooth="yes"/>
      <point x="107" y="318"/>
      <point x="98" y="330"/>
      <point x="83" y="330" type="curve" smooth="yes"/>
      <point x="48" y="330" type="line" smooth="yes"/>
      <point x="33" y="330"/>
      <point x="18" y="318"/>
      <point x="15" y="303" type="curve" smooth="yes"/>
      <point x="7" y="268" type="line" smooth="yes"/>
      <point x="4" y="253"/>
      <point x="14" y="241"/>
      <point x="29" y="241" type="curve" smooth="yes"/>
    </contour>
    <component base="vavhebrew" xOffset="90"/>
  </outline>
</glyph>
<glyph name="tetdageshhebrew" format="1">
  <advance width="663"/>
  <unicode hex="FB38"/>
  <outline>
    <contour>
      <point x="341" y="240" type="line" smooth="yes" name="hr00"/>
      <point x="356" y="240"/>
      <point x="370" y="252"/>
      <point x="373" y="267" type="curve" smooth="yes"/>
      <point x="381" y="302" type="line" smooth="yes"/>
      <point x="384" y="317"/>
      <point x="374" y="329"/>
      <point x="359" y="329" type="curve" smooth="yes"/>
      <point x="324" y="329" type="line" smooth="yes"/>
      <point x="309" y="329"/>
      <point x="295" y="317"/>
      <point x="292" y="302" type="curve" smooth="yes"/>
      <point x="284" y="267" type="line" smooth="yes"/>
      <point x="281" y="252"/>
      <point x="291" y="240"/>
      <point x="306" y="240" type="curve" smooth="yes"/>
    </contour>
    <component base="tethebrew"/>
  </outline>
</glyph>
<glyph name="finalkafdageshhebrew" format="1">
  <advance width="537"/>
  <unicode hex="FB3A"/>
  <outline>
    <contour>
      <point x="124" y="240" type="line" smooth="yes" name="hr00"/>
      <point x="139" y="240"/>
      <point x="153" y="252"/>
      <point x="156" y="267" type="curve" smooth="yes"/>
      <point x="164" y="302" type="line" smooth="yes"/>
      <point x="167" y="317"/>
      <point x="157" y="329"/>
      <point x="142" y="329" type="curve" smooth="yes"/>
      <point x="107" y="329" type="line" smooth="yes"/>
      <point x="92" y="329"/>
      <point x="78" y="317"/>
      <point x="75" y="302" type="curve" smooth="yes"/>
      <point x="67" y="267" type="line" smooth="yes"/>
      <point x="64" y="252"/>
      <point x="74" y="240"/>
      <point x="89" y="240" type="curve" smooth="yes"/>
    </contour>
    <component base="finalkafhebrew"/>
  </outline>
</glyph>
<glyph name="samekhdageshhebrew" format="1">
  <advance width="618"/>
  <unicode hex="FB41"/>
  <outline>
    <contour>
      <point x="316" y="240" type="line" smooth="yes" name="hr00"/>
      <point x="331" y="240"/>
      <point x="345" y="252"/>
      <point x="348" y="267" type="curve" smooth="yes"/>
      <point x="356" y="302" type="line" smooth="yes"/>
      <point x="359" y="317"/>
      <point x="349" y="329"/>
      <point x="334" y="329" type="curve" smooth="yes"/>
      <point x="299" y="329" type="line" smooth="yes"/>
      <point x="284" y="329"/>
      <point x="270" y="317"/>
      <point x="267" y="302" type="curve" smooth="yes"/>
      <point x="259" y="267" type="line" smooth="yes"/>
      <point x="256" y="252"/>
      <point x="266" y="240"/>
      <point x="281" y="240" type="curve" smooth="yes"/>
    </contour>
    <component base="samekhhebrew"/>
  </outline>
</glyph>
<glyph name="tsadidageshhebrew" format="1">
  <advance width="606"/>
  <unicode hex="FB46"/>
  <outline>
    <contour>
      <point x="102" y="240" type="line" smooth="yes" name="hr00"/>
      <point x="117" y="240"/>
      <point x="131" y="252"/>
      <point x="134" y="267" type="curve" smooth="yes"/>
      <point x="142" y="302" type="line" smooth="yes"/>
      <point x="145" y="317"/>
      <point x="135" y="329"/>
      <point x="120" y="329" type="curve" smooth="yes"/>
      <point x="85" y="329" type="line" smooth="yes"/>
      <point x="70" y="329"/>
      <point x="56" y="317"/>
      <point x="53" y="302" type="curve" smooth="yes"/>
      <point x="45" y="267" type="line" smooth="yes"/>
      <point x="42" y="252"/>
      <point x="52" y="240"/>
      <point x="67" y="240" type="curve" smooth="yes"/>
    </contour>
    <component base="tsadihebrew"/>
  </outline>
</glyph>
<glyph name="tavdageshhebrew" format="1">
  <advance width="750"/>
  <unicode hex="FB4A"/>
  <outline>
    <contour>
      <point x="420" y="240" type="line" smooth="yes" name="hr00"/>
      <point x="435" y="240"/>
      <point x="449" y="252"/>
      <point x="452" y="267" type="curve" smooth="yes"/>
      <point x="460" y="302" type="line" smooth="yes"/>
      <point x="463" y="317"/>
      <point x="453" y="329"/>
      <point x="438" y="329" type="curve" smooth="yes"/>
      <point x="403" y="329" type="line" smooth="yes"/>
      <point x="388" y="329"/>
      <point x="374" y="317"/>
      <point x="371" y="302" type="curve" smooth="yes"/>
      <point x="363" y="267" type="line" smooth="yes"/>
      <point x="360" y="252"/>
      <point x="370" y="240"/>
      <point x="385" y="240" type="curve" smooth="yes"/>
    </contour>
    <component base="tavhebrew"/>
  </outline>
</glyph>
<glyph name="Breve" format="1">
  <advance width="389"/>
  <outline>
    <contour>
      <point x="251" y="901" type="curve" smooth="yes"/>
      <point x="245" y="871"/>
      <point x="231" y="846"/>
      <point x="199" y="846" type="curve" smooth="yes"/>
      <point x="167" y="846"/>
      <point x="165" y="871"/>
      <point x="171" y="901" type="curve" smooth="yes"/>
      <point x="173" y="911"/>
      <point x="168" y="920"/>
      <point x="156" y="920" type="curve" smooth="yes" name="hr01"/>
      <point x="57" y="920" type="line" smooth="yes"/>
      <point x="45" y="920"/>
      <point x="36" y="911"/>
      <point x="34" y="901" type="curve" smooth="yes"/>
      <point x="15" y="811"/>
      <point x="78" y="745"/>
      <point x="188" y="745" type="curve" smooth="yes"/>
      <point x="318" y="745"/>
      <point x="369" y="811"/>
      <point x="388" y="901" type="curve" smooth="yes"/>
      <point x="390" y="911"/>
      <point x="385" y="920"/>
      <point x="373" y="920" type="curve" smooth="yes"/>
      <point x="274" y="920" type="line" smooth="yes"/>
      <point x="262" y="920"/>
      <point x="253" y="911"/>
    </contour>
  </outline>
</glyph>
<glyph name="asciitilde.cap" format="1">
  <advance width="549"/>
  <outline>
    <contour>
      <point x="186" y="466" type="curve" smooth="yes"/>
      <point x="118" y="466"/>
      <point x="78" y="430"/>
      <point x="69" y="386" type="curve" smooth="yes"/>
      <point x="46" y="278" type="line" smooth="yes"/>
      <point x="41" y="253"/>
      <point x="41" y="241"/>
      <point x="60" y="241" type="curve"/>
      <point x="69" y="242"/>
      <point x="76" y="246"/>
      <point x="82" y="250" type="curve" smooth="yes"/>
      <point x="94" y="259"/>
      <point x="124" y="276"/>
      <point x="165" y="276" type="curve" smooth="yes"/>
      <point x="248" y="276"/>
      <point x="298" y="234"/>
      <point x="387" y="234" type="curve" smooth="yes" name="hr01"/>
      <point x="455" y="234"/>
      <point x="494" y="270"/>
      <point x="504" y="314" type="curve" smooth="yes"/>
      <point x="527" y="422" type="line" smooth="yes"/>
      <point x="532" y="447"/>
      <point x="531" y="459"/>
      <point x="512" y="459" type="curve"/>
      <point x="503" y="458"/>
      <point x="496" y="454"/>
      <point x="491" y="450" type="curve" smooth="yes"/>
      <point x="479" y="441"/>
      <point x="449" y="424"/>
      <point x="408" y="424" type="curve" smooth="yes"/>
      <point x="325" y="424"/>
      <point x="275" y="466"/>
    </contour>
  </outline>
</glyph>
<glyph name="commaaccent.cap" format="1">
  <advance width="304"/>
  <outline>
    <contour>
      <point x="32" y="-226" type="line" name="hr00"/>
      <point x="27" y="-238"/>
      <point x="36" y="-250"/>
      <point x="49" y="-250" type="curve" smooth="yes"/>
      <point x="165" y="-250" type="line" smooth="yes"/>
      <point x="191" y="-250"/>
      <point x="207" y="-231"/>
      <point x="215" y="-218" type="curve" smooth="yes"/>
      <point x="300" y="-79" type="line"/>
      <point x="308" y="-66"/>
      <point x="300" y="-50"/>
      <point x="285" y="-50" type="curve" smooth="yes"/>
      <point x="134" y="-50" type="line" smooth="yes"/>
      <point x="107" y="-50"/>
      <point x="89" y="-71"/>
      <point x="83" y="-89" type="curve" smooth="yes"/>
    </contour>
  </outline>
</glyph>
<glyph name="endash.cap" format="1">
  <advance width="572"/>
  <outline>
    <contour>
      <point x="110" y="448" type="line" smooth="yes" name="hr00"/>
      <point x="95" y="448"/>
      <point x="81" y="436"/>
      <point x="77" y="421" type="curve"/>
      <point x="47" y="279" type="line" smooth="yes"/>
      <point x="44" y="264"/>
      <point x="53" y="252"/>
      <point x="68" y="252" type="curve" smooth="yes"/>
      <point x="483" y="252" type="line" smooth="yes"/>
      <point x="498" y="252"/>
      <point x="513" y="264"/>
      <point x="516" y="279" type="curve" smooth="yes"/>
      <point x="546" y="421" type="line"/>
      <point x="550" y="436"/>
      <point x="540" y="448"/>
      <point x="525" y="448" type="curve" smooth="yes"/>
    </contour>
  </outline>
</glyph>
<glyph name="six.otlf" format="1">
  <advance width="700"/>
  <outline>
    <contour>
      <point x="621" y="665" type="line" smooth="yes" name="hr00"/>
      <point x="623" y="668"/>
      <point x="626" y="672"/>
      <point x="628" y="678" type="curve" smooth="yes"/>
      <point x="630" y="690"/>
      <point x="622" y="700"/>
      <point x="610" y="700" type="curve" smooth="yes"/>
      <point x="409" y="700" type="line" smooth="yes"/>
      <point x="387" y="700"/>
      <point x="373" y="687"/>
      <point x="366" y="680" type="curve" smooth="yes"/>
      <point x="158" y="467" type="line" smooth="yes"/>
      <point x="123" y="432"/>
      <point x="34" y="345"/>
      <point x="15" y="259" type="curve" smooth="yes"/>
      <point x="-20" y="94"/>
      <point x="131" y="-10"/>
      <point x="309" y="-10" type="curve" smooth="yes"/>
      <point x="507" y="-10"/>
      <point x="634" y="89"/>
      <point x="666" y="240" type="curve" smooth="yes"/>
      <point x="700" y="400"/>
      <point x="552" y="485"/>
      <point x="459" y="498" type="curve"/>
    </contour>
    <contour>
      <point x="411" y="250" type="curve" smooth="yes"/>
      <point x="402" y="208"/>
      <point x="366" y="185"/>
      <point x="328" y="185" type="curve" smooth="yes"/>
      <point x="290" y="185"/>
      <point x="264" y="208"/>
      <point x="273" y="250" type="curve" smooth="yes"/>
      <point x="282" y="292"/>
      <point x="316" y="315"/>
      <point x="355" y="315" type="curve" smooth="yes"/>
      <point x="394" y="315"/>
      <point x="420" y="292"/>
    </contour>
  </outline>
</glyph>
